# xmcd
#
# Track frame offsets:
#	150
#	17328
#	42710
#	66749
#	85674
#	107827
#	130332
#	146328
#	168305
#	184474
#	204456
#	216806
#	242344
#
# Disc length: 3431 seconds
#
# Revision: 0
# Processed by: cddbd v1.4PL0 Copyright (c) Steve Scherf et al.
# Submitted via: EasyCDDAExtractor 4.6.9.1
#
DISCID=bb0d650d
DTITLE=Chicago Brother and Sister Blues Band - Volume 2
DYEAR=2000
DGENRE=Blues
TTITLE0=Got My Mojo Workin'
TTITLE1=The Blues Follow Me
TTITLE2=Ode to Billy Joe
TTITLE3=Goin' to New York
TTITLE4=Your Reached Your Goal
TTITLE5=One of These Days
TTITLE6=Momma He Treats Your Daughter Mean
TTITLE7=Rock Me Baby
TTITLE8=Sweet Home Chicago
TTITLE9=Little Red Rooster
TTITLE10=Tell Me Baby
TTITLE11=Gotta Leave This Town
TTITLE12=Everyday I Have the Blues
EXTD=
EXTT0=
EXTT1=
EXTT2=
EXTT3=
EXTT4=
EXTT5=
EXTT6=
EXTT7=
EXTT8=
EXTT9=
EXTT10=
EXTT11=
EXTT12=
PLAYORDER=
